<svg width="923" height="926" viewBox="0 0 923 926" fill="none" xmlns="http://www.w3.org/2000/svg">
<g filter="url(#filter0_d_49_329)">
<path d="M253.204 0.0165685C257.614 0.0165685 262.024 0.0165685 266.434 0.00656854C275.054 -0.00343146 283.664 0.00656854 292.274 0.00656854C299.284 0.0165685 306.284 0.0165685 313.294 0.00656854C314.794 0.00656854 314.794 0.00656854 316.334 0.00656854C318.364 0.00656854 320.404 0.00656854 322.434 0.00656854C341.474 0.00656854 360.504 0.00656854 379.534 0.0165685C395.824 0.0265685 412.124 0.0265685 428.414 0.0165685C447.384 0.00656854 466.354 0.00656854 485.334 0.00656854C487.354 0.00656854 489.384 0.00656854 491.414 0.00656854C492.904 0.00656854 492.904 0.00656854 494.434 0.00656854C501.424 0.0165685 508.414 0.00656854 515.404 0.00656854C523.934 -0.00343146 532.464 -0.00343146 540.994 0.0165685C545.334 0.0165685 549.674 0.0165685 554.024 0.0165685C570.864 -0.0134315 587.564 -0.00343132 604.284 2.27657C605.424 2.42657 606.554 2.57657 607.724 2.72657C650.314 8.53657 691.344 27.5666 723.284 56.2766C724.574 57.3566 725.874 58.4466 727.164 59.5266C737.014 68.2266 746.524 77.6566 754.284 88.2766C754.884 89.0866 754.884 89.0866 755.484 89.9166C758.464 94.0066 761.394 98.1266 764.284 102.277C765.154 103.517 765.154 103.517 766.044 104.787C784.684 132.017 795.034 163.997 800.284 196.277C800.544 197.817 800.544 197.817 800.804 199.387C802.134 207.877 802.574 216.107 802.554 224.677C802.554 226.077 802.564 227.467 802.564 228.867C802.584 232.657 802.584 236.447 802.574 240.237C802.574 244.337 802.584 248.437 802.594 252.537C802.614 260.567 802.624 268.587 802.624 276.607C802.624 283.127 802.624 289.647 802.634 296.167C802.654 314.677 802.654 333.187 802.654 351.697C802.654 353.187 802.654 353.187 802.654 354.717C802.654 355.707 802.654 356.707 802.654 357.737C802.654 373.907 802.674 390.077 802.704 406.257C802.734 422.887 802.744 439.517 802.744 456.147C802.744 465.477 802.744 474.807 802.774 484.137C802.784 492.067 802.794 500.007 802.784 507.947C802.774 511.987 802.774 516.037 802.794 520.077C802.804 523.787 802.804 527.497 802.784 531.207C802.784 533.177 802.794 535.137 802.814 537.107C802.734 547.787 800.694 556.747 793.144 564.627C786.664 570.387 779.414 572.527 770.834 572.537C770.104 572.547 769.374 572.547 768.624 572.547C766.194 572.557 763.764 572.557 761.334 572.557C759.584 572.557 757.834 572.567 756.084 572.567C751.344 572.577 746.604 572.587 741.864 572.577C737.894 572.577 733.934 572.587 729.974 572.587C720.614 572.597 711.264 572.597 701.904 572.597C692.264 572.587 682.634 572.596 672.994 572.617C664.714 572.637 656.424 572.647 648.144 572.647C643.194 572.637 638.254 572.647 633.314 572.657C628.654 572.667 624.004 572.667 619.354 572.657C617.654 572.657 615.954 572.657 614.244 572.667C601.914 572.717 590.564 572.437 581.284 563.277C573.544 553.987 572.994 544.967 573.044 533.277C573.044 531.987 573.044 530.687 573.044 529.347C573.034 525.757 573.044 522.157 573.054 518.567C573.064 514.627 573.064 510.687 573.054 506.747C573.054 499.107 573.064 491.467 573.084 483.817C573.094 474.977 573.094 466.137 573.094 457.297C573.104 433.957 573.134 410.617 573.164 387.277C573.204 335.137 573.244 282.997 573.284 229.277C460.424 229.277 347.564 229.277 231.284 229.277C231.284 342.137 231.284 454.997 231.284 571.277C273.194 571.277 315.104 571.277 358.284 571.277C381.684 573.617 381.684 573.617 390.094 575.467C391.094 575.677 392.084 575.897 393.104 576.117C422.694 582.727 451.584 594.477 476.284 612.277C477.234 612.947 478.174 613.627 479.154 614.317C481.674 616.157 484.154 618.047 486.614 619.967C488.204 621.217 489.814 622.447 491.414 623.677C499.274 629.966 505.604 636.967 511.804 644.857C528.554 665.987 546.204 686.567 574.234 690.087C591.074 691.907 608.164 691.297 625.054 690.627C634.374 690.267 643.684 690.207 653.004 690.167C669.624 690.087 686.234 689.787 702.844 689.337C718.924 688.897 734.994 688.557 751.074 688.347C752.064 688.337 753.064 688.327 754.094 688.317C760.084 688.237 766.084 688.167 772.074 688.097C780.804 687.997 789.534 687.887 798.264 687.777C799.204 687.767 800.144 687.757 801.114 687.747C814.064 687.577 827.014 687.347 839.964 687.037C842.594 686.977 845.214 686.927 847.844 686.867C848.694 686.846 849.534 686.827 850.414 686.817C852.084 686.777 853.764 686.737 855.444 686.707C860.224 686.607 864.994 686.477 869.774 686.347C872.684 686.267 875.584 686.207 878.494 686.147C880.444 686.107 882.384 686.037 884.334 685.977C892.924 685.827 899.734 687.127 906.874 692.067C907.464 692.677 908.054 693.277 908.664 693.907C909.264 694.497 909.874 695.087 910.494 695.697C917.034 705.137 916.864 714.917 916.804 725.947C916.814 727.727 916.814 729.497 916.824 731.277C916.844 736.077 916.834 740.877 916.824 745.677C916.814 750.716 916.824 755.757 916.834 760.797C916.834 769.267 916.824 777.727 916.804 786.187C916.784 795.947 916.794 805.717 916.814 815.477C916.834 823.877 916.834 832.286 916.824 840.687C916.814 845.697 916.814 850.707 916.834 855.717C916.844 860.427 916.834 865.137 916.814 869.857C916.804 871.577 916.804 873.297 916.814 875.017C916.874 886.527 916.474 897.907 908.134 906.777C901.524 912.147 894.184 914.427 885.814 914.517C885.064 914.527 884.324 914.537 883.554 914.547C858.614 914.807 835.284 912.397 811.284 905.277C810.224 904.977 810.224 904.977 809.144 904.667C799.784 901.987 791.014 898.627 782.284 894.277C780.934 893.617 779.584 892.957 778.244 892.297C774.234 890.327 770.254 888.307 766.284 886.277C765.464 885.857 764.644 885.437 763.794 885.007C751.124 878.257 739.194 869.577 728.284 860.277C727.434 859.587 726.574 858.896 725.704 858.177C719.274 852.656 714.274 847.047 709.474 840.037C696.724 821.667 680.944 803.107 658.014 798.617C631.244 794.077 603.274 795.567 576.254 796.287C563.784 796.607 551.314 796.646 538.834 796.677C516.574 796.737 494.334 797.007 472.074 797.417C450.534 797.807 428.994 798.107 407.454 798.277C406.784 798.277 406.124 798.287 405.434 798.287C396.754 798.357 388.074 798.427 379.384 798.487C367.704 798.567 356.034 798.667 344.354 798.757C343.094 798.767 341.834 798.777 340.544 798.797C323.204 798.937 305.864 799.137 288.534 799.397C285.004 799.447 281.474 799.507 277.954 799.557C268.144 799.697 258.334 799.847 248.524 800.017C244.624 800.087 240.724 800.147 236.814 800.197C235.044 800.227 233.264 800.257 231.494 800.297C220.544 800.517 210.124 799.937 199.284 798.277C197.684 798.047 197.684 798.047 196.044 797.807C182.664 795.857 170.014 792.817 157.284 788.277C156.034 787.847 156.034 787.847 154.764 787.407C123.684 776.557 96.0138 759.037 72.2838 736.277C71.7538 735.777 71.2238 735.267 70.6738 734.747C62.3738 726.837 55.1138 718.487 48.2838 709.277C47.5738 708.347 47.5738 708.347 46.8538 707.387C23.6438 676.727 9.52381 640.267 4.28381 602.277C4.19381 601.607 4.09382 600.937 4.00382 600.247C1.73382 583.406 1.99382 566.467 2.02382 549.507C2.03382 545.097 2.02381 540.687 2.01381 536.287C2.00381 527.677 2.01381 519.067 2.01381 510.457C2.02381 503.457 2.02381 496.447 2.01381 489.447C2.01381 488.447 2.01381 487.437 2.01381 486.407C2.01381 484.377 2.01381 482.337 2.01381 480.307C2.01381 461.277 2.01382 442.247 2.02382 423.217C2.03382 406.927 2.03382 390.647 2.02382 374.357C2.01382 355.397 2.01381 336.427 2.01381 317.467C2.01381 315.437 2.01381 313.407 2.01381 311.377C2.01381 309.887 2.01382 309.887 2.02382 308.357C2.02382 301.377 2.01381 294.387 2.01381 287.407C2.00381 278.877 2.01382 270.347 2.02382 261.817C2.02382 257.477 2.02382 253.137 2.02382 248.797C1.95382 204.487 1.95381 204.487 6.53381 184.157C6.75381 183.167 6.96381 182.177 7.18381 181.157C16.8938 137.867 37.4338 100.147 68.2838 68.2766C69.4538 67.0466 69.4538 67.0466 70.6438 65.7966C76.1438 60.1266 82.0938 55.1666 88.2838 50.2766C89.2638 49.4866 90.2338 48.6966 91.2438 47.8766C104.744 37.1266 119.634 28.4966 135.284 21.2766C135.994 20.9466 136.714 20.6166 137.444 20.2766C174.614 3.20657 212.894 -0.0434315 253.204 0.0165685Z" fill="url(#paint0_linear_49_329)"/>
<path d="M226 229C226.66 229 227.32 229 228 229C228 342.19 228 455.38 228 572C269.91 572 311.82 572 355 572C378.4 574.34 378.4 574.34 386.81 576.19C388.3 576.51 388.3 576.51 389.82 576.84C419.41 583.45 448.3 595.2 473 613C473.95 613.67 474.89 614.35 475.87 615.04C478.39 616.88 480.87 618.77 483.32 620.69C484.92 621.94 486.52 623.17 488.13 624.4C495.99 630.69 509.79 641.61 516 649.5C532.75 670.62 542.92 687.29 570.95 690.81C587.79 692.63 604.88 692.02 621.77 691.35C631.08 690.99 640.39 690.93 649.72 690.89C666.34 690.81 682.95 690.51 699.56 690.05C715.64 689.62 731.71 689.28 747.78 689.07C748.78 689.06 749.78 689.05 750.8 689.03C756.8 688.96 762.79 688.89 768.79 688.82C777.52 688.72 786.25 688.61 794.98 688.5C795.92 688.49 796.86 688.48 797.83 688.46C810.78 688.3 823.73 688.06 836.67 687.76C839.3 687.7 841.93 687.65 844.56 687.59C845.41 687.57 846.25 687.55 847.12 687.53C848.8 687.5 850.48 687.46 852.16 687.43C856.94 687.32 861.71 687.2 866.49 687.07C869.39 686.99 872.3 686.93 875.21 686.87C877.15 686.83 879.1 686.76 881.05 686.7C889.64 686.55 896.44 687.85 903.59 692.79C904.18 693.39 904.77 694 905.38 694.62C905.98 695.22 906.59 695.81 907.21 696.41C913.74 705.86 913.57 715.64 913.52 726.67C913.52 728.44 913.53 730.22 913.54 732C913.56 736.8 913.55 741.6 913.54 746.4C913.53 751.44 913.54 756.48 913.54 761.52C913.55 769.98 913.54 778.45 913.52 786.91C913.5 796.67 913.51 806.44 913.53 816.2C913.55 824.6 913.55 833 913.54 841.41C913.53 846.42 913.53 851.43 913.55 856.44C913.56 861.15 913.55 865.86 913.53 870.57C913.52 872.3 913.52 874.02 913.53 875.74C913.58 887.25 913.19 898.63 904.85 907.5C898.23 912.87 890.9 915.15 882.53 915.24C881.78 915.25 881.03 915.26 880.26 915.27C855.32 915.53 832 913.12 808 906C806.94 905.7 806.94 905.7 805.85 905.39C796.49 902.71 787.73 899.34 779 895C777.65 894.34 776.3 893.68 774.95 893.02C770.95 891.04 766.97 889.03 763 887C762.18 886.58 761.36 886.16 760.51 885.73C747.84 878.98 735.91 870.3 725 861C724.15 860.31 723.29 859.62 722.41 858.9C715.98 853.38 710.99 847.77 706.19 840.76C693.44 822.39 677.66 803.83 654.73 799.34C627.95 794.8 599.99 796.29 572.97 797C560.49 797.32 548.03 797.37 535.55 797.4C513.29 797.46 491.04 797.73 468.79 798.14C447.25 798.53 425.71 798.83 404.17 799C403.5 799 402.84 799.01 402.15 799.01C393.47 799.08 384.78 799.14 376.1 799.21C364.42 799.29 352.74 799.39 341.07 799.48C339.81 799.49 338.55 799.5 337.26 799.51C319.92 799.66 302.58 799.86 285.24 800.12C281.72 800.17 278.19 800.22 274.67 800.28C264.86 800.42 255.05 800.56 245.24 800.74C241.34 800.81 237.43 800.86 233.53 800.92C231.76 800.95 229.98 800.98 228.21 801.01C217.26 801.24 206.84 800.66 196 799C194.39 798.77 194.39 798.77 192.76 798.53C179.37 796.58 166.73 793.54 154 789C152.75 788.57 152.75 788.57 151.48 788.13C120.4 777.28 92.73 759.76 69 737C68.47 736.5 67.94 735.99 67.39 735.47C59.08 727.56 51.83 719.21 45 710C44.29 709.07 44.29 709.07 43.57 708.11C21.38 678.79 1.66 639.58 4 602C3.34 602 2.68 602 2 602C2 598.7 2 595.4 2 592C3.98 591.67 5.96 591.34 8 591C7.83 590.15 7.67 589.3 7.5 588.42C6.83 583.86 7.03 579.43 7.16 574.83C7.31 571.86 7.31 571.86 5 570C4.81 567.14 4.74 564.38 4.77 561.52C4.77 560.67 4.77 559.83 4.77 558.96C4.77 557.16 4.77999 555.37 4.78999 553.57C4.80999 550.84 4.81 548.11 4.81 545.38C4.82 543.64 4.83 541.89 4.83 540.14C4.83 539.33 4.83 538.52 4.84 537.69C4.87 534.05 5.05001 530.67 5.57001 527.05C6.28001 524.09 6.28 524.09 5 522C4.93 519.45 4.91 516.93 4.94 514.38C4.94 513.67 4.95 512.96 4.95 512.23C4.96 510.49 4.98 508.74 5 507C5.66 507 6.32 507 7 507C6.86 505.93 6.71 504.85 6.56 503.75C6.37 502.31 6.19 500.87 6 499.44C5.9 498.73 5.81001 498.03 5.71001 497.3C5.14001 492.85 4.73 488.5 5 484C5.99 483.01 5.99 483.01 7 482C7.72 479.68 8.39 477.35 9 475C10.98 475 12.96 475 15 475C15.5 473.02 15.5 473.02 16 471C16.99 471 17.98 471 19 471C19 467.37 19 463.74 19 460C20.32 459.67 21.64 459.34 23 459C23.33 457.68 23.66 456.36 24 455C26.31 455 28.62 455 31 455C30.67 454.01 30.34 453.02 30 452C29.01 451.67 28.02 451.34 27 451C27 448.69 27 446.38 27 444C28.32 443.67 29.64 443.34 31 443C31.08 442.42 31.16 441.85 31.25 441.25C32.23 438.32 33.64 436.95 36 435C36.99 435 37.98 435 39 435C39.08 434.42 39.16 433.85 39.25 433.25C40.23 430.32 41.64 428.95 44 427C44.99 427 45.98 427 47 427C47.08 426.42 47.16 425.85 47.25 425.25C48.23 422.32 49.64 420.95 52 419C52.99 419 53.98 419 55 419C55.08 418.42 55.16 417.85 55.25 417.25C56.23 414.32 57.64 412.95 60 411C60.99 411 61.98 411 63 411C63.08 410.42 63.16 409.85 63.25 409.25C64.23 406.32 65.64 404.95 68 403C68.99 403 69.98 403 71 403C71.08 402.42 71.16 401.85 71.25 401.25C72.23 398.32 73.64 396.95 76 395C76.99 395 77.98 395 79 395C79.08 394.42 79.16 393.85 79.25 393.25C80.23 390.32 81.64 388.95 84 387C84.99 387 85.98 387 87 387C87.08 386.42 87.16 385.85 87.25 385.25C88.23 382.32 89.64 380.95 92 379C92.99 379 93.98 379 95 379C95.08 378.42 95.16 377.85 95.25 377.25C96.23 374.32 97.64 372.95 100 371C100.99 371 101.98 371 103 371C103.08 370.42 103.16 369.85 103.25 369.25C104.23 366.32 105.64 364.95 108 363C108.99 363 109.98 363 111 363C111.08 362.42 111.16 361.85 111.25 361.25C112.23 358.32 113.64 356.95 116 355C116.99 355 117.98 355 119 355C119.08 354.42 119.16 353.85 119.25 353.25C120.23 350.32 121.64 348.95 124 347C124.99 347 125.98 347 127 347C127.08 346.42 127.16 345.85 127.25 345.25C128.23 342.32 129.64 340.95 132 339C132.99 339 133.98 339 135 339C135.08 338.42 135.16 337.85 135.25 337.25C136.23 334.32 137.64 332.95 140 331C140.99 331 141.98 331 143 331C143.08 330.42 143.16 329.85 143.25 329.25C144.23 326.32 145.64 324.95 148 323C148.99 323 149.98 323 151 323C151.08 322.42 151.16 321.85 151.25 321.25C152.23 318.32 153.64 316.95 156 315C156.99 315 157.98 315 159 315C159.08 314.42 159.16 313.85 159.25 313.25C160.23 310.32 161.64 308.95 164 307C164.99 307 165.98 307 167 307C167.08 306.42 167.16 305.85 167.25 305.25C168.23 302.32 169.64 300.95 172 299C172.99 299 173.98 299 175 299C175.08 298.42 175.16 297.85 175.25 297.25C176.23 294.32 177.64 292.95 180 291C180.99 291 181.98 291 183 291C183.08 290.42 183.16 289.85 183.25 289.25C184.23 286.32 185.64 284.95 188 283C188.99 283 189.98 283 191 283C191.08 282.42 191.16 281.85 191.25 281.25C192.23 278.32 193.64 276.95 196 275C196.99 275 197.98 275 199 275C199.08 274.42 199.16 273.85 199.25 273.25C200.23 270.32 201.64 268.95 204 267C204.99 267 205.98 267 207 267C207.08 266.42 207.16 265.85 207.25 265.25C208.23 262.32 209.64 260.95 212 259C212.99 259 213.98 259 215 259C215.33 257.68 215.66 256.36 216 255C218.31 254.67 220.62 254.34 223 254C223 257.96 223 261.92 223 266C223.66 266 224.32 266 225 266C225.33 253.79 225.66 241.58 226 229Z" fill="url(#paint1_linear_49_329)"/>
<path d="M555 686.52C598.02 686.43 641.03 686.36 684.05 686.32C689.13 686.31 694.21 686.31 699.29 686.3C700.3 686.3 701.31 686.3 702.35 686.3C718.72 686.28 735.09 686.25 751.46 686.21C768.26 686.17 785.06 686.15 801.86 686.14C812.22 686.14 822.59 686.12 832.95 686.09C840.06 686.07 847.17 686.06 854.28 686.07C858.38 686.07 862.48 686.06 866.58 686.04C870.34 686.02 874.09 686.02 877.85 686.04C879.85 686.04 881.84 686.02 883.84 686C892.45 686.06 899.42 687.35 906.59 692.31C907.18 692.91 907.77 693.52 908.38 694.14C908.98 694.74 909.59 695.33 910.21 695.93C916.74 705.38 916.57 715.16 916.52 726.19C916.52 727.96 916.53 729.74 916.54 731.52C916.56 736.32 916.55 741.12 916.54 745.92C916.53 750.96 916.54 756 916.54 761.04C916.55 769.5 916.54 777.97 916.52 786.43C916.5 796.19 916.51 805.96 916.53 815.72C916.55 824.12 916.55 832.52 916.54 840.93C916.53 845.94 916.53 850.95 916.55 855.96C916.56 860.67 916.55 865.38 916.53 870.09C916.52 871.82 916.52 873.54 916.53 875.26C916.58 886.77 916.19 898.15 907.85 907.02C901.23 912.39 893.9 914.67 885.53 914.76C884.78 914.77 884.03 914.78 883.26 914.79C858.32 915.05 835 912.64 811 905.52C809.94 905.22 809.94 905.22 808.85 904.91C799.49 902.23 790.73 898.86 782 894.52C780.65 893.86 779.3 893.2 777.95 892.54C773.95 890.56 769.97 888.55 766 886.52C765.18 886.1 764.36 885.68 763.51 885.25C750.84 878.5 738.91 869.82 728 860.52C727.15 859.83 726.29 859.14 725.41 858.42C718.97 852.97 713.97 847.26 709.2 840.28C696.45 821.86 680.65 803.35 657.68 798.85C630.75 794.29 602.64 795.76 575.46 796.46C562.93 796.77 550.41 796.81 537.89 796.84C515.56 796.89 493.24 797.15 470.91 797.55C449.26 797.93 427.61 798.22 405.96 798.37C405.29 798.37 404.62 798.37 403.93 798.38C397.19 798.43 390.46 798.47 383.72 798.52C327.47 798.88 271.24 799.58 215 800.52C215 800.19 215 799.86 215 799.52C363.83 799.19 512.66 798.86 666 798.52C663.03 795.55 660.06 792.58 657 789.52C657 788.86 657 788.2 657 787.52C656.4 787.25 655.8 786.97 655.19 786.69C653.06 785.55 651.67 784.45 649.98 782.75C649.42 782.2 648.86 781.65 648.28 781.08C647.69 780.48 647.09 779.88 646.48 779.27C645.87 778.66 645.25 778.04 644.62 777.41C643.32 776.11 642.03 774.82 640.74 773.52C638.75 771.52 636.75 769.54 634.76 767.55C633.5 766.29 632.24 765.03 630.98 763.77C630.08 762.88 630.08 762.88 629.17 761.96C625 757.75 625 757.75 625 755.52C624.4 755.25 623.8 754.97 623.19 754.69C621.06 753.55 619.67 752.45 617.98 750.75C617.42 750.2 616.86 749.65 616.28 749.08C615.69 748.48 615.09 747.88 614.48 747.27C613.56 746.35 613.56 746.35 612.62 745.41C611.32 744.11 610.03 742.82 608.74 741.52C606.75 739.52 604.75 737.54 602.76 735.55C601.5 734.29 600.24 733.03 598.98 731.77C598.08 730.88 598.08 730.88 597.17 729.96C593 725.75 593 725.75 593 723.52C591.68 722.86 590.36 722.2 589 721.52C589 720.86 589 720.2 589 719.52C588.44 719.28 587.88 719.05 587.3 718.8C584.47 717.23 582.52 715.3 580.23 713.02C578.9 711.69 578.9 711.69 577.54 710.33C576.62 709.4 575.7 708.48 574.75 707.52C573.35 706.13 573.35 706.13 571.91 704.71C571.03 703.82 570.15 702.93 569.23 702.02C568.02 700.8 568.02 700.8 566.77 699.55C565 697.52 565 697.52 565 695.52C564.11 695.14 564.11 695.14 563.2 694.75C560.79 693.4 559.49 692.03 557.75 689.9C557.23 689.26 556.71 688.63 556.17 687.98C555.79 687.5 555.4 687.02 555 686.52Z" fill="#2463EB"/>
</g>
<defs>
<filter id="filter0_d_49_329" x="0" y="0" width="922.838" height="925.289" filterUnits="userSpaceOnUse" color-interpolation-filters="sRGB">
<feFlood flood-opacity="0" result="BackgroundImageFix"/>
<feColorMatrix in="SourceAlpha" type="matrix" values="0 0 0 0 0 0 0 0 0 0 0 0 0 0 0 0 0 0 127 0" result="hardAlpha"/>
<feOffset dx="2" dy="6"/>
<feGaussianBlur stdDeviation="2"/>
<feComposite in2="hardAlpha" operator="out"/>
<feColorMatrix type="matrix" values="0 0 0 0 0 0 0 0 0 0 0 0 0 0 0 0 0 0 0.42 0"/>
<feBlend mode="normal" in2="BackgroundImageFix" result="effect1_dropShadow_49_329"/>
<feBlend mode="normal" in="SourceGraphic" in2="effect1_dropShadow_49_329" result="shape"/>
</filter>
<linearGradient id="paint0_linear_49_329" x1="2.21734" y1="-7.27242e-06" x2="916.783" y2="914.565" gradientUnits="userSpaceOnUse">
<stop stop-color="#2463EB"/>
<stop offset="1" stop-color="#00AAFD"/>
</linearGradient>
<linearGradient id="paint1_linear_49_329" x1="114.633" y1="229" x2="800.921" y2="915.289" gradientUnits="userSpaceOnUse">
<stop stop-color="#01AAFD" stop-opacity="0"/>
<stop offset="1" stop-color="#2463EB"/>
</linearGradient>
</defs>
</svg>
